<svg width="136" height="136" viewBox="0 0 136 136" fill="none" xmlns="http://www.w3.org/2000/svg">
<circle cx="68.001" cy="68" r="68" fill="black" fill-opacity="0.121569"/>
<path fill-rule="evenodd" clip-rule="evenodd" d="M6 68C6 50.8792 12.0531 36.2656 24.1594 24.1594C36.2656 12.0531 50.8792 6 68 6C85.1208 6 99.7344 12.0531 111.841 24.1594C123.947 36.2656 130 50.8792 130 68C130 85.1208 123.947 99.7344 111.841 111.841C99.7344 123.947 85.1208 130 68 130C50.8792 130 36.2656 123.947 24.1594 111.841C12.0531 99.7344 6 85.1208 6 68Z" fill="url(#paint0_linear_272_1132)"/>
<circle cx="67" cy="67" r="54" fill="#C2D7F2"/>
<path d="M37.7258 54.104C35.3258 52.856 34.1258 50.924 34.1258 48.308C34.1258 47.012 34.4498 45.836 35.0978 44.78C35.7698 43.7 36.7658 42.848 38.0858 42.224C39.4298 41.576 41.0618 41.252 42.9818 41.252C44.9018 41.252 46.5218 41.576 47.8418 42.224C49.1858 42.848 50.1818 43.7 50.8298 44.78C51.5018 45.836 51.8378 47.012 51.8378 48.308C51.8378 49.628 51.5138 50.792 50.8658 51.8C50.2178 52.784 49.3538 53.552 48.2738 54.104C49.5938 54.68 50.6258 55.52 51.3698 56.624C52.1138 57.728 52.4858 59.036 52.4858 60.548C52.4858 62.18 52.0658 63.608 51.2258 64.832C50.4098 66.032 49.2818 66.956 47.8418 67.604C46.4018 68.252 44.7818 68.576 42.9818 68.576C41.1818 68.576 39.5618 68.252 38.1218 67.604C36.7058 66.956 35.5778 66.032 34.7378 64.832C33.9218 63.608 33.5138 62.18 33.5138 60.548C33.5138 59.036 33.8858 57.728 34.6298 56.624C35.3738 55.496 36.4058 54.656 37.7258 54.104ZM46.9418 49.028C46.9418 47.852 46.5818 46.94 45.8618 46.292C45.1658 45.644 44.2058 45.32 42.9818 45.32C41.7818 45.32 40.8218 45.644 40.1018 46.292C39.4058 46.94 39.0578 47.864 39.0578 49.064C39.0578 50.144 39.4178 51.008 40.1378 51.656C40.8818 52.304 41.8298 52.628 42.9818 52.628C44.1338 52.628 45.0818 52.304 45.8258 51.656C46.5698 50.984 46.9418 50.108 46.9418 49.028ZM42.9818 56.3C41.6138 56.3 40.4978 56.648 39.6338 57.344C38.7938 58.04 38.3738 59.036 38.3738 60.332C38.3738 61.532 38.7818 62.516 39.5978 63.284C40.4378 64.028 41.5658 64.4 42.9818 64.4C44.3978 64.4 45.5138 64.016 46.3298 63.248C47.1458 62.48 47.5538 61.508 47.5538 60.332C47.5538 59.06 47.1338 58.076 46.2938 57.38C45.4538 56.66 44.3498 56.3 42.9818 56.3ZM74.1066 46.112H62.4426V52.268C62.9466 51.644 63.6666 51.14 64.6026 50.756C65.5386 50.348 66.5346 50.144 67.5906 50.144C69.5106 50.144 71.0826 50.564 72.3066 51.404C73.5306 52.244 74.4186 53.324 74.9706 54.644C75.5226 55.94 75.7986 57.332 75.7986 58.82C75.7986 61.58 75.0066 63.8 73.4226 65.48C71.8626 67.16 69.6306 68 66.7266 68C63.9906 68 61.8066 67.316 60.1746 65.948C58.5426 64.58 57.6186 62.792 57.4026 60.584H62.2986C62.5146 61.544 62.9946 62.312 63.7386 62.888C64.5066 63.464 65.4786 63.752 66.6546 63.752C68.0706 63.752 69.1386 63.308 69.8586 62.42C70.5786 61.532 70.9386 60.356 70.9386 58.892C70.9386 57.404 70.5666 56.276 69.8226 55.508C69.1026 54.716 68.0346 54.32 66.6186 54.32C65.6106 54.32 64.7706 54.572 64.0986 55.076C63.4266 55.58 62.9466 56.252 62.6586 57.092H57.8346V41.684H74.1066V46.112ZM79.0586 48.2C79.0586 46.376 79.5866 44.948 80.6426 43.916C81.7226 42.884 83.1026 42.368 84.7826 42.368C86.4626 42.368 87.8306 42.884 88.8866 43.916C89.9666 44.948 90.5066 46.376 90.5066 48.2C90.5066 50.048 89.9666 51.488 88.8866 52.52C87.8306 53.552 86.4626 54.068 84.7826 54.068C83.1026 54.068 81.7226 53.552 80.6426 52.52C79.5866 51.488 79.0586 50.048 79.0586 48.2ZM102.171 42.8L88.0226 68H83.1266L97.2386 42.8H102.171ZM84.7466 45.392C83.4266 45.392 82.7666 46.328 82.7666 48.2C82.7666 50.096 83.4266 51.044 84.7466 51.044C85.3946 51.044 85.8986 50.816 86.2586 50.36C86.6186 49.88 86.7986 49.16 86.7986 48.2C86.7986 46.328 86.1146 45.392 84.7466 45.392ZM94.8626 62.564C94.8626 60.716 95.3906 59.288 96.4466 58.28C97.5266 57.248 98.9066 56.732 100.587 56.732C102.267 56.732 103.623 57.248 104.655 58.28C105.711 59.288 106.239 60.716 106.239 62.564C106.239 64.412 105.711 65.852 104.655 66.884C103.623 67.916 102.267 68.432 100.587 68.432C98.8826 68.432 97.5026 67.916 96.4466 66.884C95.3906 65.852 94.8626 64.412 94.8626 62.564ZM100.551 59.756C99.1826 59.756 98.4986 60.692 98.4986 62.564C98.4986 64.46 99.1826 65.408 100.551 65.408C101.895 65.408 102.567 64.46 102.567 62.564C102.567 60.692 101.895 59.756 100.551 59.756Z" fill="black"/>
<path d="M49.66 87.144C49.468 86.792 49.204 86.524 48.868 86.34C48.532 86.156 48.14 86.064 47.692 86.064C47.196 86.064 46.756 86.176 46.372 86.4C45.988 86.624 45.688 86.944 45.472 87.36C45.256 87.776 45.148 88.256 45.148 88.8C45.148 89.36 45.256 89.848 45.472 90.264C45.696 90.68 46.004 91 46.396 91.224C46.788 91.448 47.244 91.56 47.764 91.56C48.404 91.56 48.928 91.392 49.336 91.056C49.744 90.712 50.012 90.236 50.14 89.628H47.26V88.344H51.796V89.808C51.684 90.392 51.444 90.932 51.076 91.428C50.708 91.924 50.232 92.324 49.648 92.628C49.072 92.924 48.424 93.072 47.704 93.072C46.896 93.072 46.164 92.892 45.508 92.532C44.86 92.164 44.348 91.656 43.972 91.008C43.604 90.36 43.42 89.624 43.42 88.8C43.42 87.976 43.604 87.24 43.972 86.592C44.348 85.936 44.86 85.428 45.508 85.068C46.164 84.7 46.892 84.516 47.692 84.516C48.636 84.516 49.456 84.748 50.152 85.212C50.848 85.668 51.328 86.312 51.592 87.144H49.66ZM57.3589 93L55.5109 89.736H54.7189V93H53.0389V84.624H56.1829C56.8309 84.624 57.3829 84.74 57.8389 84.972C58.2949 85.196 58.6349 85.504 58.8589 85.896C59.0909 86.28 59.2069 86.712 59.2069 87.192C59.2069 87.744 59.0469 88.244 58.7269 88.692C58.4069 89.132 57.9309 89.436 57.2989 89.604L59.3029 93H57.3589ZM54.7189 88.476H56.1229C56.5789 88.476 56.9189 88.368 57.1429 88.152C57.3669 87.928 57.4789 87.62 57.4789 87.228C57.4789 86.844 57.3669 86.548 57.1429 86.34C56.9189 86.124 56.5789 86.016 56.1229 86.016H54.7189V88.476ZM65.8624 91.404H62.5264L61.9744 93H60.2104L63.2224 84.612H65.1784L68.1904 93H66.4144L65.8624 91.404ZM65.4064 90.06L64.1944 86.556L62.9824 90.06H65.4064ZM72.2443 84.624C73.1243 84.624 73.8963 84.796 74.5603 85.14C75.2323 85.484 75.7483 85.976 76.1083 86.616C76.4763 87.248 76.6603 87.984 76.6603 88.824C76.6603 89.664 76.4763 90.4 76.1083 91.032C75.7483 91.656 75.2323 92.14 74.5603 92.484C73.8963 92.828 73.1243 93 72.2443 93H69.3163V84.624H72.2443ZM72.1843 91.572C73.0643 91.572 73.7443 91.332 74.2243 90.852C74.7043 90.372 74.9443 89.696 74.9443 88.824C74.9443 87.952 74.7043 87.272 74.2243 86.784C73.7443 86.288 73.0643 86.04 72.1843 86.04H70.9963V91.572H72.1843ZM79.5978 85.98V88.08H82.4178V89.412H79.5978V91.632H82.7778V93H77.9178V84.612H82.7778V85.98H79.5978ZM92.2999 91.404H88.9639L88.4119 93H86.6479L89.6599 84.612H91.6159L94.6279 93H92.8519L92.2999 91.404ZM91.8439 90.06L90.6319 86.556L89.4199 90.06H91.8439Z" fill="black"/>
<circle cx="19.5" cy="101.5" r="18.5" fill="url(#paint1_linear_272_1132)"/>
<path fill-rule="evenodd" clip-rule="evenodd" d="M19.7478 90.4863L23.4023 97.6028L31.3358 98.6259L25.6975 104.301L27.1762 112.164L20.0365 108.555L13.0171 112.39L14.2424 104.485L8.42554 98.9923L16.3227 97.7153L19.7478 90.4863Z" fill="white"/>
<path fill-rule="evenodd" clip-rule="evenodd" d="M19.7488 90.4862L19.9227 101.381L23.4063 97.6024L19.7488 90.4862Z" fill="#686868" fill-opacity="0.431373"/>
<path fill-rule="evenodd" clip-rule="evenodd" d="M31.3367 98.6258L19.9226 101.381L25.6974 104.301L31.3367 98.6258Z" fill="#686868" fill-opacity="0.431373"/>
<path fill-rule="evenodd" clip-rule="evenodd" d="M19.9227 101.381L16.3227 97.7153L8.42554 98.9923L19.9227 101.381Z" fill="#686868" fill-opacity="0.431373"/>
<path fill-rule="evenodd" clip-rule="evenodd" d="M13.0171 112.39L19.9227 101.381L14.2436 104.487L13.0171 112.39Z" fill="#686868" fill-opacity="0.431373"/>
<path fill-rule="evenodd" clip-rule="evenodd" d="M27.177 112.162L19.9226 101.381L20.0373 108.554L27.177 112.162Z" fill="#686868" fill-opacity="0.431373"/>
<defs>
<linearGradient id="paint0_linear_272_1132" x1="-13.034" y1="64.156" x2="62.358" y2="145.624" gradientUnits="userSpaceOnUse">
<stop stop-color="white"/>
<stop offset="0.502" stop-color="#656565"/>
<stop offset="1" stop-color="#C9C9C9"/>
</linearGradient>
<linearGradient id="paint1_linear_272_1132" x1="-8.1575" y1="95.2285" x2="11.7855" y2="128.491" gradientUnits="userSpaceOnUse">
<stop stop-color="#FFF89A"/>
<stop offset="1" stop-color="#D83300"/>
</linearGradient>
</defs>
</svg>
