<svg width="54" height="54" viewBox="0 0 54 54" fill="none" xmlns="http://www.w3.org/2000/svg">
<path d="M47.064 43.8269H8.4621L11.3844 10.4422C11.5273 8.81439 12.8931 7.55962 14.5291 7.55962H45.3329L50.1849 40.2138C50.4708 42.1196 48.9937 43.8269 47.064 43.8269Z" fill="#8A9BEA"/>
<path d="M45.3329 7.55962L42.4106 40.9521C42.2677 42.5803 40.9016 43.8269 39.2657 43.8269H4.92829C3.07794 43.8269 1.62464 42.2468 1.78342 40.3965L4.412 10.4422C4.55489 8.81439 5.92094 7.55962 7.54872 7.55962H45.3329Z" fill="#DDDDDD"/>
<path d="M45.3329 7.55962L44.6817 14.9766H4.01495L4.41201 10.4422C4.5549 8.81439 5.92095 7.55962 7.54874 7.55962H45.3329Z" fill="#39CEF2"/>
<path d="M11.9948 7.56584H11.7804C11.5501 6.54954 11.1769 5.57279 10.5495 4.91361C10.1524 4.53245 9.73948 4.42892 9.39011 4.66739C9.0169 4.89772 8.69119 5.39792 8.50061 5.93806C8.30208 6.44601 8.17509 6.99429 8.10355 7.56584C8.03201 8.19323 8.03201 8.83651 8.08765 9.46389C8.15919 10.0672 8.27048 10.671 8.51651 11.2189C8.74683 11.7668 9.10415 12.3146 9.75538 12.4496C9.07235 12.5609 8.44497 12.013 8.07195 11.4651C7.68264 10.9013 7.44456 10.258 7.29353 9.59883C7.1586 8.93965 7.09501 8.27272 7.13475 7.59764C7.16655 6.91481 7.29353 6.23197 7.53976 5.56465C7.80983 4.92137 8.16714 4.24668 8.90562 3.81782C9.27883 3.61115 9.77127 3.54756 10.1922 3.68289C10.6129 3.81782 10.9307 4.09546 11.153 4.38162C11.8677 5.36612 12.0582 6.49371 11.9948 7.56584Z" fill="#51504F"/>
<path d="M19.4515 7.56584H19.2371C19.0067 6.54954 18.6335 5.57279 18.0141 4.91361C17.6091 4.53245 17.1961 4.42892 16.8468 4.66739C16.4736 4.89772 16.156 5.39792 15.9654 5.93806C15.7589 6.44601 15.6317 7.00205 15.5683 7.56584C15.4889 8.19323 15.4889 8.83651 15.5445 9.46389C15.616 10.0672 15.7271 10.671 15.9732 11.2189C16.2035 11.7668 16.5687 12.3146 17.212 12.4496C16.5292 12.5609 15.9018 12.013 15.5366 11.4651C15.1395 10.9013 14.9092 10.258 14.7504 9.59883C14.6075 8.9319 14.5519 8.24906 14.5916 7.56584C14.6234 6.89891 14.7583 6.22383 14.9964 5.56465C15.2665 4.92137 15.6317 4.24668 16.3625 3.81782C16.7357 3.61115 17.2359 3.54756 17.6488 3.68289C18.0777 3.81782 18.3873 4.09546 18.6176 4.38162C19.3325 5.36612 19.5151 6.49371 19.4515 7.56584Z" fill="#51504F"/>
<path d="M26.9082 7.56584H26.7019C26.4716 6.54954 26.0982 5.57279 25.471 4.91361C25.066 4.53245 24.661 4.42892 24.3037 4.66739C23.9303 4.89772 23.6127 5.39792 23.4221 5.93806C23.2236 6.45416 23.0966 7.00205 23.0251 7.56584C22.9535 8.18547 22.9535 8.83651 23.0012 9.46389C23.0728 10.0672 23.1839 10.671 23.4301 11.2189C23.6604 11.7668 24.0257 12.3146 24.6769 12.4496C23.9939 12.5609 23.3587 12.013 22.9933 11.4651C22.6042 10.9013 22.3661 10.258 22.2151 9.59883C22.0722 8.9319 22.0086 8.24906 22.0483 7.56584C22.0801 6.89076 22.2151 6.21569 22.4613 5.56465C22.7232 4.92137 23.0887 4.24668 23.8271 3.81782C24.1924 3.61115 24.6928 3.54756 25.1137 3.68289C25.5344 3.81782 25.8442 4.09546 26.0746 4.38162C26.7971 5.36612 26.9718 6.49371 26.9082 7.56584Z" fill="#51504F"/>
<path d="M34.3651 7.56584H34.1586C33.9283 6.54954 33.5551 5.57279 32.9277 4.91361C32.5227 4.53245 32.1177 4.42892 31.7603 4.66739C31.3871 4.89772 31.0696 5.39792 30.8788 5.93806C30.6803 6.44601 30.5533 6.99429 30.4817 7.56584C30.4104 8.19323 30.4104 8.83651 30.4658 9.46389C30.5374 10.0672 30.6407 10.671 30.8869 11.2189C31.1171 11.7668 31.4825 12.3146 32.1336 12.4496C31.4507 12.5609 30.8154 12.013 30.4501 11.4651C30.061 10.9013 29.8227 10.258 29.6717 9.59883C29.5288 8.9319 29.4654 8.24906 29.5131 7.56584C29.5447 6.89076 29.6799 6.21569 29.9179 5.56465C30.1801 4.92137 30.5453 4.24668 31.284 3.81782C31.657 3.61115 32.1495 3.54756 32.5704 3.68289C32.9913 3.81782 33.3009 4.09546 33.5312 4.38162C34.2538 5.36612 34.4287 6.49371 34.3651 7.56584Z" fill="#51504F"/>
<path d="M41.8297 7.56584H41.6153C41.385 6.54954 41.012 5.57279 40.3846 4.91361C39.9875 4.53245 39.5746 4.42892 39.2252 4.66739C38.8518 4.89772 38.5263 5.39792 38.3357 5.93806C38.1372 6.44601 38.01 6.99429 37.9386 7.56584C37.8671 8.19323 37.8671 8.83651 37.9227 9.46389C37.9943 10.0672 38.1054 10.671 38.3516 11.2189C38.5819 11.7668 38.9392 12.3146 39.5905 12.4496C38.9074 12.5609 38.28 12.013 37.9068 11.4651C37.5177 10.9013 37.2795 10.258 37.1286 9.59883C36.9857 8.9319 36.9301 8.24906 36.9698 7.56584C37.0016 6.89891 37.1366 6.22383 37.3748 5.56465C37.6447 4.92137 38.0022 4.24668 38.7407 3.81782C39.1139 3.61115 39.6064 3.54756 40.0271 3.68289C40.4559 3.81782 40.7657 4.09546 40.9879 4.38162C41.7027 5.36612 41.8933 6.49371 41.8297 7.56584Z" fill="#51504F"/>
<path d="M9.76077 18.9456C9.82146 20.7196 9.76523 22.4811 9.66791 24.2388C9.57795 25.9969 9.41878 27.7476 9.24623 29.4971C9.05138 31.2439 8.8418 32.9896 8.5632 34.7279C8.29197 36.467 7.97866 38.2014 7.54768 39.9234C7.48544 38.1494 7.54108 36.3875 7.6388 34.6302C7.72895 32.8721 7.88812 31.1214 8.06222 29.3723C8.25843 27.6251 8.46801 25.8798 8.747 24.1415C9.01862 22.4024 9.33114 20.668 9.76077 18.9456Z" fill="#8A9BEA"/>
<path d="M19.0488 18.9456C19.1095 20.7196 19.0533 22.4811 18.956 24.2388C18.866 25.9969 18.7068 27.7476 18.5343 29.4971C18.3394 31.244 18.1299 32.9896 17.8513 34.7279C17.58 36.467 17.2667 38.2014 16.8357 39.9234C16.7737 38.1494 16.8291 36.3875 16.9269 34.6302C17.017 32.8721 17.1762 31.1214 17.3503 29.3723C17.5465 27.6251 17.7563 25.8798 18.0351 24.1415C18.3067 22.4024 18.6192 20.668 19.0488 18.9456Z" fill="#8A9BEA"/>
<path d="M28.3369 18.9456C28.3975 20.7196 28.3413 22.4811 28.244 24.2388C28.154 25.9969 27.9949 27.7476 27.8223 29.4971C27.6275 31.244 27.4179 32.9896 27.1393 34.7279C26.8681 36.467 26.5548 38.2014 26.1238 39.9234C26.0617 38.1494 26.1172 36.3875 26.2149 34.6302C26.305 32.8721 26.4642 31.1214 26.6383 29.3723C26.8345 27.6251 27.0443 25.8798 27.3231 24.1415C27.5947 22.4024 27.9072 20.668 28.3369 18.9456Z" fill="#8A9BEA"/>
<path d="M37.6249 18.9456C37.6856 20.7196 37.6293 22.4811 37.532 24.2388C37.4421 25.9969 37.2829 27.7476 37.1103 29.4971C36.9155 31.244 36.7059 32.9896 36.4273 34.7279C36.1561 36.467 35.8428 38.2014 35.4118 39.9234C35.3497 38.1494 35.4052 36.3875 35.5029 34.6302C35.5931 32.8721 35.7524 31.1214 35.9263 29.3723C36.1227 27.6251 36.3323 25.8798 36.6111 24.1415C36.8827 22.4024 37.1955 20.668 37.6249 18.9456Z" fill="#8A9BEA"/>
<path d="M5.95947 25.6785C11.7333 25.2101 17.5073 25.1023 23.2812 25.0833C29.055 25.1 34.829 25.207 40.6029 25.6785C34.829 26.1497 29.055 26.2571 23.2812 26.2737C17.5073 26.2544 11.7333 26.1469 5.95947 25.6785Z" fill="#8A9BEA"/>
<path d="M5.95947 33.1909C11.7333 32.7225 17.5073 32.6147 23.2812 32.5957C29.055 32.6123 34.829 32.7194 40.6029 33.1909C34.829 33.662 29.055 33.7694 23.2812 33.7861C17.5073 33.7667 11.7333 33.6593 5.95947 33.1909Z" fill="#8A9BEA"/>
<path d="M16.6323 20.0255C16.3307 20.8119 15.878 21.447 15.3935 22.0507C14.8933 22.6382 14.3454 23.1783 13.7339 23.6467L13.6226 23.7344C13.4322 23.877 13.1621 23.8453 13.0193 23.6549L13.0111 23.6467C12.6222 23.1225 12.2567 22.5827 12.0026 21.9236C12.4791 22.098 12.8841 22.3365 13.2732 22.5986C13.6862 22.1143 14.1309 21.6696 14.6152 21.2644C15.2108 20.7801 15.8462 20.3276 16.6323 20.0255Z" fill="#B53016"/>
<path d="M24.8713 27.5358C24.5697 28.3221 24.117 28.9573 23.6325 29.561C23.1323 30.1485 22.5844 30.6886 21.9729 31.157L21.8616 31.2446C21.6712 31.3873 21.4012 31.3555 21.2583 31.1651L21.2501 31.157C20.8612 30.6328 20.4957 30.093 20.2416 29.4338C20.7181 29.6083 21.1231 29.8468 21.5122 30.1089C21.9252 29.6246 22.37 29.1798 22.8543 28.7746C23.4498 28.2903 24.0852 27.8378 24.8713 27.5358Z" fill="#B53016"/>
<path d="M33.7651 22.7333C34.0071 23.0964 34.2277 23.4803 34.3771 23.9358C33.9145 23.7937 33.5303 23.5731 33.1745 23.324C32.954 23.1815 32.7548 23.0252 32.5627 22.8473C32.3705 23.0179 32.1713 23.1815 31.9508 23.324C31.5878 23.5731 31.2037 23.7937 30.7482 23.9358C30.8977 23.4803 31.1182 23.0964 31.3602 22.7333C31.5025 22.5127 31.6661 22.3136 31.8369 22.1215C31.659 21.9293 31.5025 21.7299 31.3602 21.5096C31.1111 21.1539 30.8904 20.7696 30.7482 20.3068C31.2108 20.4562 31.595 20.6772 31.9508 20.919C32.1713 21.0611 32.3705 21.2247 32.5627 21.3957C32.7548 21.2247 32.9612 21.0611 33.1745 20.919C33.5303 20.6772 33.9145 20.4562 34.3771 20.3068C34.2277 20.7696 34.0142 21.1539 33.7651 21.5096C33.6157 21.7299 33.4592 21.9363 33.2885 22.1284C33.4592 22.3206 33.6229 22.52 33.7651 22.7333Z" fill="#FBAD3E"/>
<path d="M42.799 50.3891C48.0518 50.3891 52.3101 46.1309 52.3101 40.878C52.3101 35.6251 48.0518 31.3669 42.799 31.3669C37.5461 31.3669 33.2878 35.6251 33.2878 40.878C33.2878 46.1309 37.5461 50.3891 42.799 50.3891Z" fill="#39CEF2"/>
<path d="M50.3382 40.8732C50.3382 41.0028 50.3382 41.1238 50.3289 41.2538V41.2629C50.2362 43.0534 49.5218 44.6867 48.3895 45.9394C48.2226 46.1252 48.0464 46.301 47.8608 46.4682C46.6081 47.6004 44.975 48.3149 43.1843 48.4077H43.175C43.0452 48.4168 42.9244 48.4168 42.7946 48.4168C42.6739 48.4168 42.5441 48.4168 42.4233 48.4077C40.6233 48.3239 38.9902 47.6004 37.7375 46.4682C37.552 46.301 37.3757 46.1252 37.2088 45.9394C36.0766 44.6867 35.3621 43.0534 35.2694 41.2629V41.2538C35.2601 41.1238 35.2601 41.0028 35.2601 40.8732C35.2601 40.7527 35.2601 40.6227 35.2694 40.5017C35.353 38.7021 36.0766 37.0688 37.2088 35.8161C37.3757 35.6303 37.552 35.4546 37.7375 35.2874C38.9902 34.1552 40.6233 33.4316 42.4233 33.3478C42.5441 33.3387 42.6739 33.3387 42.7946 33.3387C42.9244 33.3387 43.0452 33.3387 43.175 33.3478C44.9657 33.4407 46.6081 34.1552 47.8608 35.2874C48.0464 35.4546 48.2226 35.6303 48.3895 35.8161C49.5218 37.0688 50.2453 38.7021 50.3289 40.5017C50.3382 40.6227 50.3382 40.7527 50.3382 40.8732Z" fill="white"/>
<path d="M43.2586 33.7565C43.2491 34.0627 43.1657 34.3595 42.7947 34.6563C42.4327 34.3595 42.3493 34.0627 42.3398 33.7565C42.3398 33.6169 42.3679 33.4873 42.4234 33.3478C42.5441 33.3387 42.6739 33.3387 42.7947 33.3387C42.9245 33.3387 43.0452 33.3387 43.175 33.3478C43.2307 33.4873 43.2586 33.6169 43.2586 33.7565Z" fill="#51504F"/>
<path d="M43.2586 47.9991C43.2586 48.1386 43.2307 48.2682 43.1843 48.4077H43.175C43.0452 48.4168 42.9245 48.4168 42.7947 48.4168C42.6739 48.4168 42.5441 48.4168 42.4234 48.4077C42.3679 48.2682 42.3398 48.1386 42.3398 47.9991C42.3493 47.6928 42.4327 47.396 42.7947 47.0993C43.1657 47.396 43.2491 47.6928 43.2586 47.9991Z" fill="#51504F"/>
<path d="M36.5776 40.8732C36.2809 41.2443 35.9839 41.3277 35.6776 41.3372C35.5385 41.3372 35.4087 41.3091 35.2694 41.2629V41.2538C35.2601 41.1238 35.2601 41.0028 35.2601 40.8732C35.2601 40.7527 35.2601 40.6227 35.2694 40.5017C35.4087 40.4464 35.5385 40.4184 35.6776 40.4184C35.9839 40.4279 36.2809 40.5112 36.5776 40.8732Z" fill="#51504F"/>
<path d="M50.3382 40.8732C50.3382 41.0028 50.3382 41.1238 50.3289 41.2538V41.2629C50.1898 41.3091 50.0598 41.3372 49.9207 41.3372C49.6144 41.3277 49.3174 41.2443 49.0207 40.8732C49.3174 40.5112 49.6144 40.4279 49.9207 40.4184C50.0598 40.4184 50.1898 40.4464 50.3289 40.5017C50.3382 40.6227 50.3382 40.7527 50.3382 40.8732Z" fill="#51504F"/>
<path d="M38.4058 36.4844C37.9323 36.5306 37.6635 36.3729 37.4408 36.1686C37.3479 36.0666 37.2645 35.9552 37.2088 35.8161C37.3758 35.6303 37.552 35.4546 37.7375 35.2874C37.8768 35.3431 37.9881 35.4265 38.0902 35.5193C38.2943 35.7418 38.452 36.0109 38.4058 36.4844Z" fill="#51504F"/>
<path d="M48.3896 45.9394C48.2226 46.1252 48.0464 46.301 47.8608 46.4681C47.7215 46.4124 47.6103 46.3291 47.5081 46.2362C47.304 46.0137 47.1463 45.7446 47.1925 45.2711C47.666 45.2249 47.9351 45.3826 48.1576 45.5869C48.2505 45.6889 48.3341 45.8003 48.3896 45.9394Z" fill="#51504F"/>
<path d="M38.4058 45.2711C38.452 45.7446 38.2943 46.0137 38.0902 46.2362C37.9881 46.3291 37.8768 46.4124 37.7375 46.4681C37.552 46.301 37.3758 46.1252 37.2088 45.9394C37.2645 45.8003 37.3479 45.6889 37.4408 45.5869C37.6635 45.3826 37.9323 45.2249 38.4058 45.2711Z" fill="#51504F"/>
<path d="M48.3896 35.8161C48.3341 35.9552 48.2505 36.0666 48.1576 36.1686C47.9351 36.3729 47.666 36.5306 47.1925 36.4749C47.1463 36.0109 47.304 35.7418 47.5081 35.5193C47.6103 35.4265 47.7215 35.3431 47.8608 35.2874C48.0464 35.4546 48.2226 35.6303 48.3896 35.8161Z" fill="#51504F"/>
<path d="M45.8797 44.0837C45.2359 43.6937 44.6412 43.2351 44.0559 42.7671C43.4807 42.289 42.9248 41.7919 42.3982 41.2747L42.2617 41.1481V40.9338C42.2322 39.9976 42.2713 39.0515 42.3298 38.1153C42.4079 37.1692 42.5055 36.2235 42.7298 35.2874C42.9636 36.2235 43.0612 37.1692 43.1393 38.1153C43.1979 38.9929 43.2269 39.871 43.2074 40.7486C43.6757 41.2262 44.1243 41.7333 44.5631 42.2599C45.0311 42.8451 45.4895 43.4399 45.8797 44.0837Z" fill="#FBAD3E"/>
<path d="M42.799 42.3471C43.6104 42.3471 44.2681 41.6894 44.2681 40.878C44.2681 40.0666 43.6104 39.4089 42.799 39.4089C41.9876 39.4089 41.3299 40.0666 41.3299 40.878C41.3299 41.6894 41.9876 42.3471 42.799 42.3471Z" fill="#51504F"/>
</svg>
