<svg width="48" height="48" viewBox="0 0 48 48" fill="none" xmlns="http://www.w3.org/2000/svg">
<path d="M37.6681 0.187515H4.27075C1.92187 0.187515 0 2.10939 0 4.45826V43.4689C0 45.8177 1.92187 47.7396 4.27075 47.7396H37.6681C38.3364 47.7396 38.8832 47.1929 38.8832 46.5245V1.4026C38.8832 0.734268 38.3364 0.187515 37.6681 0.187515Z" fill="#CE7132"/>
<path d="M6.95068 47.7396V0.187515H4.27075C1.92187 0.187515 0 2.10939 0 4.45826V43.4689C0 45.8177 1.92187 47.7396 4.27075 47.7396H6.95068Z" fill="#BF6122"/>
<path d="M2.89746 43.4689V4.45826C2.89746 2.18227 4.70178 0.307266 6.95068 0.193008V0.187515H4.27075C1.92187 0.187515 0 2.10939 0 4.45826V43.4689C0 45.8177 1.92187 47.7396 4.27075 47.7396H6.95068V47.7341C4.70178 47.6199 2.89746 45.7449 2.89746 43.4689Z" fill="#B2581B"/>
<path d="M28.1114 9.97485H14.1255C13.4443 9.97485 12.8877 10.5216 12.8877 11.1896V16.1001C12.8877 16.7684 13.4443 17.3152 14.1255 17.3152H25.3894L28.1114 9.97485Z" fill="#BF6122"/>
<path d="M15.7852 16.1005V11.1899C15.7852 10.5216 16.3422 9.97485 17.0229 9.97485H14.1255C13.4443 9.97485 12.8877 10.5216 12.8877 11.1899V16.1005C12.8877 16.7684 13.4443 17.3152 14.1255 17.3152H17.0229C16.3422 17.3152 15.7852 16.7684 15.7852 16.1005Z" fill="#B2581B"/>
</svg>
