<svg width="24" height="24" viewBox="0 0 24 24" fill="none" xmlns="http://www.w3.org/2000/svg">
<path fill-rule="evenodd" clip-rule="evenodd" d="M21 6C21 5.44772 20.5523 5 20 5H4C3.4477 5 3 5.44772 3 6C3 6.55228 3.4477 7 4 7H20C20.5523 7 21 6.55228 21 6ZM21 12C21 11.4477 20.5523 11 20 11H10C9.4477 11 9 11.4477 9 12C9 12.5523 9.4477 13 10 13H20C20.5523 13 21 12.5523 21 12ZM21 18C21 17.4477 20.5523 17 20 17H15C14.4477 17 14 17.4477 14 18C14 18.5523 14.4477 19 15 19H20C20.5523 19 21 18.5523 21 18Z" fill="black"/>
</svg>
