<svg width="54" height="54" viewBox="0 0 54 54" fill="none" xmlns="http://www.w3.org/2000/svg">
<g clip-path="url(#clip0_97_2168)">
<path d="M44.5331 45.1944L27 53.209L9.46688 45.1944C8.90367 44.9371 8.54297 44.3749 8.54297 43.7558V30.0069H45.457V43.7558C45.457 44.3749 45.0963 44.9371 44.5331 45.1944Z" fill="#084963"/>
<path d="M8.54297 40.5527V43.7548C8.54297 44.3739 8.90367 44.936 9.46688 45.1934L27 53.2079L44.5331 45.1934C45.0963 44.936 45.457 44.3739 45.457 43.7548V40.5527L27 48.9902L8.54297 40.5527Z" fill="#838FFF"/>
<path d="M26.1457 40.1752L0.791016 28.9512L26.1457 17.7272C26.6899 17.4867 27.3101 17.4867 27.8532 17.7272L53.2079 28.9512L27.8532 40.1752C27.309 40.4156 26.6889 40.4156 26.1457 40.1752Z" fill="#838FFF"/>
<path d="M51.3633 40.5527C52.3826 40.5527 53.209 39.7264 53.209 38.707C53.209 37.6877 52.3826 36.8613 51.3633 36.8613C50.3439 36.8613 49.5176 37.6877 49.5176 38.707C49.5176 39.7264 50.3439 40.5527 51.3633 40.5527Z" fill="#FFA539"/>
<path d="M27 21.8848C32.8249 21.8848 37.5469 17.1628 37.5469 11.3379C37.5469 5.51301 32.8249 0.791016 27 0.791016C21.1751 0.791016 16.4531 5.51301 16.4531 11.3379C16.4531 17.1628 21.1751 21.8848 27 21.8848Z" fill="#FFA539"/>
<path d="M23.3086 27.1055H20.1445C19.2708 27.1055 18.5625 27.8138 18.5625 28.6875V29.2148C18.5625 30.0886 19.2708 30.7969 20.1445 30.7969H23.3086C24.1823 30.7969 24.8906 30.0886 24.8906 29.2148V28.6875C24.8906 27.8138 24.1823 27.1055 23.3086 27.1055Z" fill="#F5EEEC"/>
<path d="M33.8555 27.1055H30.6914C29.8177 27.1055 29.1094 27.8138 29.1094 28.6875V29.2148C29.1094 30.0886 29.8177 30.7969 30.6914 30.7969H33.8555C34.7292 30.7969 35.4375 30.0886 35.4375 29.2148V28.6875C35.4375 27.8138 34.7292 27.1055 33.8555 27.1055Z" fill="#F5EEEC"/>
<path d="M52.1543 36.1916V30.2832L53.5296 29.6747C53.8154 29.5481 54 29.2644 54 28.9512C54 28.6379 53.8154 28.3542 53.5296 28.2277L34.522 19.8134C36.8613 17.7346 38.3389 14.7055 38.3389 11.3379C38.3379 5.0857 33.2522 0 27 0C20.7478 0 15.6621 5.0857 15.6621 11.3379C15.6621 14.7066 17.1387 17.7356 19.479 19.8134L0.470391 28.2277C0.18457 28.3542 0 28.6379 0 28.9512C0 29.2644 0.18457 29.5481 0.470391 29.6747L7.75195 32.8978V43.7558C7.75195 44.6818 8.29617 45.5287 9.13887 45.9137L26.672 53.9283C26.7764 53.9757 26.8882 54 27.001 54C27.1139 54 27.2257 53.9757 27.3301 53.9283L44.8632 45.9137C45.7059 45.5287 46.2501 44.6818 46.2501 43.7558V32.8978L50.5744 30.9836V36.1916C49.506 36.528 48.7287 37.5289 48.7287 38.707C48.7287 40.1614 49.911 41.3438 51.3654 41.3438C52.8198 41.3438 54.0021 40.1614 54.0021 38.707C54.0021 37.5289 53.2248 36.528 52.1564 36.1916H52.1543ZM17.2441 11.3379C17.2441 5.95898 21.6211 1.58203 27 1.58203C32.3789 1.58203 36.7559 5.95898 36.7559 11.3379C36.7559 16.7168 32.3789 21.0938 27 21.0938C21.6211 21.0938 17.2441 16.7168 17.2441 11.3379ZM20.9218 20.905C22.68 22.0261 24.7651 22.6758 27 22.6758C29.2349 22.6758 31.32 22.0261 33.0782 20.905L51.2546 28.9512L27.5337 39.4516C27.1941 39.6014 26.8059 39.6014 26.4663 39.4516L2.74535 28.9512L20.9218 20.905ZM44.2041 44.4741L27 52.3389L9.79593 44.4741C9.51539 44.3454 9.33398 44.0638 9.33398 43.7548V41.7836L26.6709 49.7095C26.7753 49.757 26.8871 49.7812 27 49.7812C27.1128 49.7812 27.2246 49.757 27.3291 49.7095L44.666 41.7836V43.7548C44.666 44.0638 44.4846 44.3454 44.2041 44.4741ZM44.666 40.0444L27 48.1201L9.33398 40.0444V33.5981L25.8261 40.8987C26.1995 41.0643 26.5992 41.1465 27 41.1465C27.4008 41.1465 27.8005 41.0643 28.1739 40.8987L44.666 33.5981V40.0444ZM51.3633 39.7617C50.7821 39.7617 50.3086 39.2882 50.3086 38.707C50.3086 38.1259 50.7821 37.6523 51.3633 37.6523C51.9444 37.6523 52.418 38.1259 52.418 38.707C52.418 39.2882 51.9444 39.7617 51.3633 39.7617Z" fill="#053544"/>
<path d="M25.8799 12.1289H28.119C28.8098 12.1289 29.372 12.7206 29.372 13.4473C29.372 14.1739 28.8098 14.7656 28.119 14.7656H24.4677C24.0311 14.7656 23.6767 15.12 23.6767 15.5566C23.6767 15.9933 24.0311 16.3477 24.4677 16.3477H24.8896V17.666C24.8896 18.1027 25.2439 18.457 25.6806 18.457C26.1172 18.457 26.4716 18.1027 26.4716 17.666V16.3477H27.5263V17.666C27.5263 18.1027 27.8807 18.457 28.3173 18.457C28.7539 18.457 29.1083 18.1027 29.1083 17.666V16.1652C30.1852 15.7539 30.954 14.6907 30.954 13.4473C30.954 11.8484 29.6821 10.5469 28.119 10.5469H25.8799C25.1891 10.5469 24.627 9.9552 24.627 9.22852C24.627 8.50184 25.1891 7.91016 25.8799 7.91016H29.5312C29.9679 7.91016 30.3223 7.55578 30.3223 7.11914C30.3223 6.6825 29.9679 6.32812 29.5312 6.32812H29.1094V5.00977C29.1094 4.57313 28.755 4.21875 28.3184 4.21875C27.8817 4.21875 27.5273 4.57313 27.5273 5.00977V6.32812H26.4727V5.00977C26.4727 4.57313 26.1183 4.21875 25.6816 4.21875C25.245 4.21875 24.8906 4.57313 24.8906 5.00977V6.51059C23.8138 6.92191 23.0449 7.98504 23.0449 9.22852C23.0449 10.8274 24.3169 12.1289 25.8799 12.1289Z" fill="#053544"/>
<path d="M33.3281 12.1289H34.3828C34.8195 12.1289 35.1738 11.7745 35.1738 11.3379C35.1738 10.9013 34.8195 10.5469 34.3828 10.5469H33.3281C32.8915 10.5469 32.5371 10.9013 32.5371 11.3379C32.5371 11.7745 32.8915 12.1289 33.3281 12.1289Z" fill="#053544"/>
<path d="M21.4629 11.3379C21.4629 10.9013 21.1085 10.5469 20.6719 10.5469H19.6172C19.1805 10.5469 18.8262 10.9013 18.8262 11.3379C18.8262 11.7745 19.1805 12.1289 19.6172 12.1289H20.6719C21.1085 12.1289 21.4629 11.7745 21.4629 11.3379Z" fill="#053544"/>
<path d="M23.3086 26.3145H20.1445C18.8357 26.3145 17.7715 27.3786 17.7715 28.6875V29.2148C17.7715 30.5237 18.8357 31.5879 20.1445 31.5879H23.3086C24.6175 31.5879 25.6816 30.5237 25.6816 29.2148V28.6875C25.6816 27.3786 24.6175 26.3145 23.3086 26.3145ZM24.0996 29.2148C24.0996 29.6515 23.7452 30.0059 23.3086 30.0059H20.1445C19.7079 30.0059 19.3535 29.6515 19.3535 29.2148V28.6875C19.3535 28.2509 19.7079 27.8965 20.1445 27.8965H23.3086C23.7452 27.8965 24.0996 28.2509 24.0996 28.6875V29.2148Z" fill="#053544"/>
<path d="M30.6914 31.5879H33.8555C35.1643 31.5879 36.2285 30.5237 36.2285 29.2148V28.6875C36.2285 27.3786 35.1643 26.3145 33.8555 26.3145H30.6914C29.3825 26.3145 28.3184 27.3786 28.3184 28.6875V29.2148C28.3184 30.5237 29.3825 31.5879 30.6914 31.5879ZM29.9004 28.6875C29.9004 28.2509 30.2548 27.8965 30.6914 27.8965H33.8555C34.2921 27.8965 34.6465 28.2509 34.6465 28.6875V29.2148C34.6465 29.6515 34.2921 30.0059 33.8555 30.0059H30.6914C30.2548 30.0059 29.9004 29.6515 29.9004 29.2148V28.6875Z" fill="#053544"/>
</g>
<defs>
<clipPath id="clip0_97_2168">
<rect width="54" height="54" fill="white"/>
</clipPath>
</defs>
</svg>
