<svg width="17" height="18" viewBox="0 0 17 18" fill="none" xmlns="http://www.w3.org/2000/svg">
<g clip-path="url(#clip0_196_8946)">
<path d="M0.544354 17.5C0.403127 17.5 0.264672 17.4445 0.162382 17.3415C0.0282826 17.2074 -0.0258322 17.0127 0.0203634 16.829L1.03521 12.7556C1.05897 12.6604 1.10807 12.5732 1.17723 12.504L12.6017 1.07956C13.3743 0.306769 14.6322 0.306769 15.405 1.07956L16.4242 2.09876C17.1969 2.87155 17.1969 4.12939 16.4242 4.90204L4.99985 16.3265C4.93056 16.3956 4.84332 16.4454 4.74829 16.4685L0.674889 17.4834C0.631597 17.495 0.588305 17.5 0.544354 17.5ZM2.04729 13.1621L1.28612 16.2169L4.34097 15.4558L15.6601 4.13731C16.0112 3.78622 16.0112 3.21392 15.6601 2.86284L14.6409 1.84363C14.2891 1.49188 13.7167 1.49254 13.3664 1.84363L2.04729 13.1621Z" fill="black"/>
<path d="M14.2843 6.81877C14.1458 6.81877 14.0074 6.76611 13.9022 6.66025L10.8438 3.6025C10.6325 3.39119 10.6325 3.04881 10.8438 2.83763C11.055 2.62645 11.3973 2.62645 11.6085 2.83763L14.6671 5.89618C14.8782 6.10736 14.8782 6.44973 14.6671 6.66091C14.5603 6.76611 14.422 6.81877 14.2843 6.81877Z" fill="black"/>
<path d="M4.61795 16.4851C4.47949 16.4851 4.34117 16.4325 4.23597 16.3265L1.17743 13.2681C0.966248 13.0568 0.966248 12.7144 1.17743 12.5032C1.38861 12.292 1.73098 12.292 1.9423 12.5032L5.00071 15.5618C5.21189 15.7729 5.21189 16.1153 5.00071 16.3265C4.89472 16.4325 4.7564 16.4851 4.61795 16.4851Z" fill="black"/>
</g>
<defs>
<clipPath id="clip0_196_8946">
<rect width="17" height="17" fill="white" transform="translate(0 0.5)"/>
</clipPath>
</defs>
</svg>
