<svg width="56" height="56" viewBox="0 0 56 56" fill="none" xmlns="http://www.w3.org/2000/svg">
<path d="M55.3438 32.2637C53.3986 28.3715 51.968 25.4691 49.4012 20.7474C50.4387 18.8456 50.6805 16.6102 50.0734 14.5306C49.4664 12.4509 48.0601 10.6966 46.1623 9.65157C44.2646 8.60657 42.0301 8.3561 39.9482 8.95499C37.8662 9.55387 36.1063 10.9533 35.0539 12.8469L3.61794 12.3886C3.22701 12.3884 2.83993 12.4657 2.47902 12.6159C2.11812 12.7661 1.79054 12.9863 1.5152 13.2639C1.23985 13.5414 1.0222 13.8706 0.874787 14.2327C0.727379 14.5948 0.653138 14.9825 0.65635 15.3734C0.683147 18.6691 0.643047 13.5293 0.881454 44.4262C0.88959 45.2066 1.20469 45.9524 1.75858 46.5023C2.31246 47.0521 3.06057 47.3618 3.84103 47.3642L46.7879 46.7956C47.1776 46.7905 47.5624 46.7085 47.9202 46.5544C48.2781 46.4002 48.602 46.1769 48.8734 45.8972C49.1447 45.6175 49.3582 45.287 49.5015 44.9247C49.6449 44.5623 49.7152 44.1752 49.7086 43.7856L49.4829 29.9302C51.2179 30.7679 52.3076 31.13 55.3438 32.2637Z" fill="white"/>
<path d="M48.3798 43.8073C48.3834 44.0221 48.3445 44.2355 48.2654 44.4353C48.1864 44.635 48.0687 44.8172 47.919 44.9714C47.7694 45.1255 47.5908 45.2487 47.3935 45.3337C47.1962 45.4187 46.9841 45.4639 46.7693 45.4668L3.86446 46.0351C3.64929 46.0382 3.43564 45.9987 3.23583 45.9188C3.03601 45.8389 2.85398 45.7203 2.70022 45.5697C2.54646 45.4192 2.42401 45.2397 2.33994 45.0416C2.25587 44.8435 2.21183 44.6307 2.21035 44.4155C1.98069 14.6589 2.0101 18.4252 1.98521 15.3626C1.98365 15.1453 2.02549 14.9297 2.10829 14.7287C2.19109 14.5277 2.31318 14.3453 2.4674 14.1921C2.62163 14.0389 2.80488 13.918 3.00643 13.8365C3.20797 13.755 3.42375 13.7146 3.64112 13.7176L46.3172 14.3404C46.7413 14.3466 47.1464 14.5175 47.4466 14.8171C47.7469 15.1167 47.9188 15.5214 47.9259 15.9455C47.9723 18.7859 48.2026 32.9284 48.3798 43.8073Z" fill="#88FFA4"/>
<path d="M47.9567 17.8338L2.00337 17.5978L1.98521 15.3626C1.98365 15.1453 2.02549 14.9297 2.10829 14.7287C2.19109 14.5277 2.31318 14.3453 2.4674 14.1921C2.62163 14.0389 2.80488 13.918 3.00643 13.8365C3.20797 13.755 3.42375 13.7146 3.64112 13.7176L46.3172 14.3404C46.7413 14.3466 47.1464 14.5175 47.4466 14.8171C47.7469 15.1167 47.9188 15.5214 47.9259 15.9455L47.9567 17.8338Z" fill="#0CAF32"/>
<path d="M4.16173 16.5103C4.56748 16.5103 4.89641 16.1813 4.89641 15.7756C4.89641 15.3698 4.56748 15.0409 4.16173 15.0409C3.75599 15.0409 3.42706 15.3698 3.42706 15.7756C3.42706 16.1813 3.75599 16.5103 4.16173 16.5103Z" fill="#FCC836"/>
<path d="M6.49041 16.5103C6.89616 16.5103 7.22508 16.1813 7.22508 15.7756C7.22508 15.3698 6.89616 15.0409 6.49041 15.0409C6.08466 15.0409 5.75574 15.3698 5.75574 15.7756C5.75574 16.1813 6.08466 16.5103 6.49041 16.5103Z" fill="#FCC836"/>
<path d="M8.81902 16.5103C9.22477 16.5103 9.55369 16.1813 9.55369 15.7756C9.55369 15.3698 9.22477 15.0409 8.81902 15.0409C8.41327 15.0409 8.08435 15.3698 8.08435 15.7756C8.08435 16.1813 8.41327 16.5103 8.81902 16.5103Z" fill="#FCC836"/>
<path d="M6.76722 44.1561L14.8389 43.6623L14.5848 37.9469L6.23676 38.3467L6.76722 44.1561Z" fill="#4C3CE3"/>
<path d="M19.0649 28.0327C18.4561 28.1061 17.8422 28.1272 17.2298 28.0956C17.0763 29.177 17.0398 30.2717 17.1209 31.3609C18.4152 31.5225 19.5794 31.4564 20.7402 31.3904C21.7584 31.3325 22.7861 31.273 23.7678 30.9967C23.7882 30.9222 23.8009 30.8458 23.8055 30.7687C23.8688 29.8871 23.9156 29.0046 23.9461 28.1211C23.3689 28.0381 22.7862 27.9993 22.2031 28.0052C22.0474 25.2347 22.0211 22.4511 22.0482 19.668C20.8689 19.7061 19.779 19.7535 18.5876 19.817C18.0456 20.5281 17.4426 21.1907 16.7856 21.7972C16.8534 23.1483 16.8387 23.1173 16.8849 23.1724C16.9085 23.1932 16.9362 23.2088 16.9661 23.2183C16.9961 23.2278 17.0277 23.2311 17.0589 23.2278C17.7447 23.233 18.4294 23.2807 19.1093 23.3703C19.013 24.9192 19.0089 26.4739 19.0649 28.0327Z" fill="#FCC836"/>
<path d="M26.197 34.1848L26.4335 42.7858L33.7759 42.6224L33.6305 34.2067L26.197 34.1848Z" fill="#4C3CE3"/>
<path d="M16.2199 30.9847L24.7982 30.7019L24.8169 42.8915L16.8129 43.6397L16.2199 30.9847Z" fill="#776CFF"/>
<path d="M36.7236 20.2865C34.9926 23.4373 33.3233 26.621 31.7158 29.8377C33.1035 29.3195 34.4515 28.7005 35.7489 27.9858C36.4876 29.1915 37.1522 30.441 37.7392 31.7273C39.2217 29.0885 40.5465 26.3642 41.7068 23.5687C40.6907 21.9321 38.9598 20.7572 36.7236 20.2865Z" fill="#43AA99"/>
<path d="M47.6379 20.2865C49.369 23.4373 51.0383 26.621 52.6457 29.8377C51.2581 29.3195 49.9101 28.7005 48.6126 27.9858C47.874 29.1915 47.2093 30.441 46.6223 31.7273C45.1399 29.0885 43.815 26.3642 42.6547 23.5687C43.6709 21.9321 45.4018 20.7572 47.6379 20.2865Z" fill="#43AA99"/>
<path d="M42.2134 23.685C46.0021 23.685 49.0735 20.6137 49.0735 16.8249C49.0735 13.0362 46.0021 9.96481 42.2134 9.96481C38.4246 9.96481 35.3533 13.0362 35.3533 16.8249C35.3533 20.6137 38.4246 23.685 42.2134 23.685Z" fill="#FCC836"/>
<path d="M42.2134 12.4549L43.6953 15.2467L46.8084 15.7933L44.6111 18.0654L45.0532 21.195L42.2134 19.8074L39.3736 21.195L39.8157 18.0654L37.6185 15.7933L40.7315 15.2467L42.2134 12.4549Z" fill="white"/>
</svg>
