<svg width="48" height="48" viewBox="0 0 48 48" fill="none" xmlns="http://www.w3.org/2000/svg">
<g clip-path="url(#clip0_97_2185)">
<path d="M48 13.4882V39.3039C48 43.4578 44.6323 46.8255 40.4774 46.8255H7.52162C3.36771 46.8255 0 43.4578 0 39.3039V13.4882L24 8.25194L48 13.4882Z" fill="white"/>
<path d="M10.843 46.8247H7.52172C3.36771 46.8247 0 43.458 0 39.3041V13.4882L1.40982 12.0069L3.3214 13.4882V39.3041C3.3214 43.458 6.68912 46.8247 10.843 46.8247Z" fill="#DEDBEE"/>
<path d="M48 11.5363V13.4882H0V11.5363C0 7.38146 3.36771 4.01469 7.52162 4.01469H40.4774C44.6323 4.01469 48 7.38146 48 11.5363Z" fill="#82AEE3"/>
<path d="M10.8429 4.01459C6.68906 4.01459 3.32128 7.38134 3.32128 11.5362V13.488H0V11.5362C0 7.38134 3.36769 4.01459 7.52166 4.01459H10.8429Z" fill="#528FD8"/>
<path d="M21.059 21.2668V22.5928C21.059 23.7923 20.0864 24.7639 18.8879 24.7639H6.54101C5.34147 24.7639 4.36993 23.7923 4.36993 22.5928V21.2668C4.36993 20.0672 5.34157 19.0957 6.54101 19.0957H18.8878C20.0864 19.0956 21.059 20.0672 21.059 21.2668Z" fill="#FE646F"/>
<path d="M38.2213 29.8006V31.1277C38.2213 32.3262 37.2496 33.2988 36.0502 33.2988H23.7033C22.5038 33.2988 21.5322 32.3262 21.5322 31.1277V29.8006C21.5322 28.602 22.5039 27.6305 23.7033 27.6305H36.0501C37.2496 27.6304 38.2213 28.602 38.2213 29.8006Z" fill="#82AEE3"/>
<path d="M29.8767 38.3354V39.6614C29.8767 40.861 28.9051 41.8326 27.7056 41.8326H6.54101C5.34147 41.8326 4.36993 40.861 4.36993 39.6614V38.3354C4.36993 37.1359 5.34157 36.1643 6.54101 36.1643H27.7056C28.9052 36.1643 29.8767 37.1359 29.8767 38.3354Z" fill="#BBEC6C"/>
<path d="M42.6711 41.8327H38.4546C37.2556 41.8327 36.2837 40.8608 36.2837 39.6618V38.3352C36.2837 37.1363 37.2556 36.1643 38.4546 36.1643H42.6711C43.87 36.1643 44.8419 37.1363 44.8419 38.3352V39.6618C44.8419 40.8608 43.87 41.8327 42.6711 41.8327Z" fill="#FE646F"/>
<path d="M10.4976 8.88948C9.42992 8.88948 8.56433 8.02388 8.56433 6.95616V3.10716C8.56433 2.03944 9.42992 1.17385 10.4976 1.17385C11.5654 1.17385 12.431 2.03944 12.431 3.10716V6.95616C12.431 8.02388 11.5654 8.88948 10.4976 8.88948Z" fill="#FFE177"/>
<path d="M37.5016 8.88948C36.4339 8.88948 35.5683 8.02388 35.5683 6.95616V3.10716C35.5683 2.03944 36.4339 1.17385 37.5016 1.17385C38.5693 1.17385 39.4349 2.03944 39.4349 3.10716V6.95616C39.4349 8.02388 38.5693 8.88948 37.5016 8.88948Z" fill="#FFE177"/>
<path d="M11.17 8.76957C10.9614 8.84682 10.7345 8.88929 10.4978 8.88929C9.42964 8.88929 8.56433 8.02398 8.56433 6.95579V3.10716C8.56433 2.03898 9.42964 1.17366 10.4978 1.17366C10.7345 1.17366 10.9614 1.21613 11.17 1.29338C10.4341 1.56666 9.90964 2.2756 9.90964 3.10716V6.95579C9.90964 7.78735 10.4341 8.49629 11.17 8.76957Z" fill="#FEC165"/>
<path d="M38.1736 8.76957C37.965 8.84682 37.7381 8.88929 37.5014 8.88929C36.4332 8.88929 35.5679 8.02398 35.5679 6.95579V3.10716C35.5679 2.03898 36.4332 1.17366 37.5014 1.17366C37.7381 1.17366 37.965 1.21613 38.1736 1.29338C37.4377 1.56666 36.9132 2.2756 36.9132 3.10716V6.95579C36.9132 7.78735 37.4377 8.49629 38.1736 8.76957Z" fill="#FEC165"/>
<path d="M9.16904 16.6122H5.84223C5.4422 16.6122 5.11792 16.288 5.11792 15.8879C5.11792 15.4879 5.4422 15.1636 5.84223 15.1636H9.16904C9.56908 15.1636 9.89336 15.4879 9.89336 15.8879C9.89336 16.288 9.56908 16.6122 9.16904 16.6122Z" fill="#7A6D79"/>
<path d="M42.7618 16.6122H39.4349C39.0348 16.6122 38.7106 16.288 38.7106 15.8879C38.7106 15.4879 39.0349 15.1636 39.4349 15.1636H42.7618C43.1619 15.1636 43.4861 15.4879 43.4861 15.8879C43.4861 16.288 43.1618 16.6122 42.7618 16.6122Z" fill="#7A6D79"/>
<path d="M25.663 16.6122H22.3361C21.936 16.6122 21.6118 16.288 21.6118 15.8879C21.6118 15.4879 21.936 15.1636 22.3361 15.1636H25.663C26.0631 15.1636 26.3873 15.4879 26.3873 15.8879C26.3873 16.288 26.0631 16.6122 25.663 16.6122Z" fill="#7A6D79"/>
<path d="M18.8877 24.7639H14.9454V19.0957H18.8877C20.0862 19.0957 21.0588 20.0673 21.0588 21.2668V22.5928C21.0589 23.7923 20.0863 24.7639 18.8877 24.7639Z" fill="#FD4755"/>
<path d="M29.8767 38.3354V39.6614C29.8767 40.861 28.905 41.8326 27.7056 41.8326H14.9454V36.1643H27.7056C28.9051 36.1643 29.8767 37.1359 29.8767 38.3354Z" fill="#A2E62E"/>
<path d="M33.0541 27.6304V33.2987H23.7033C22.5038 33.2987 21.5322 32.3262 21.5322 31.1277V29.8006C21.5322 28.602 22.5039 27.6305 23.7033 27.6305H33.0541V27.6304Z" fill="#528FD8"/>
</g>
<defs>
<clipPath id="clip0_97_2185">
<rect width="48" height="48" fill="white"/>
</clipPath>
</defs>
</svg>
