<svg width="16" height="16" viewBox="0 0 16 16" fill="none" xmlns="http://www.w3.org/2000/svg">
<g clip-path="url(#clip0_88_1487)">
<path d="M14 3.99967H3.33333C2.76067 3.99967 2.21867 3.75167 1.84333 3.33367C2.21 2.92434 2.74267 2.66634 3.33333 2.66634H15.3333C15.702 2.66634 16 2.36767 16 1.99967C16 1.63167 15.702 1.33301 15.3333 1.33301H3.33333C1.49267 1.33301 0 2.82567 0 4.66634V11.333C0 13.1737 1.49267 14.6663 3.33333 14.6663H14C15.1047 14.6663 16 13.771 16 12.6663V5.99967C16 4.89501 15.1047 3.99967 14 3.99967ZM14.6667 12.6663C14.6667 13.0337 14.368 13.333 14 13.333H3.33333C2.23067 13.333 1.33333 12.4357 1.33333 11.333V4.66501C1.90267 5.09101 2.60267 5.33301 3.33333 5.33301H14C14.368 5.33301 14.6667 5.63234 14.6667 5.99967V12.6663ZM13.3333 9.33301C13.3333 9.70101 13.0347 9.99967 12.6667 9.99967C12.2987 9.99967 12 9.70101 12 9.33301C12 8.96501 12.2987 8.66634 12.6667 8.66634C13.0347 8.66634 13.3333 8.96501 13.3333 9.33301Z" fill="#303030"/>
</g>
<defs>
<clipPath id="clip0_88_1487">
<rect width="16" height="16" fill="white"/>
</clipPath>
</defs>
</svg>
