<svg width="47" height="48" viewBox="0 0 47 48" fill="none" xmlns="http://www.w3.org/2000/svg">
<path d="M1.84449 26.0039C0.557028 24.8209 0.557058 22.7916 1.84449 21.6085L15.6767 8.89741C17.5937 7.13579 20.6929 8.49362 20.6929 11.0951V36.5173C20.6929 39.119 17.5937 40.4767 15.6767 38.7152L1.84449 26.0039Z" fill="#5A84FA"/>
<path d="M31.6444 25.4101C30.3568 24.2271 30.3568 22.1979 31.6444 21.0148L37.2111 15.8993C39.128 14.1378 42.2271 15.4956 42.2271 18.0971V28.3281C42.2271 30.9295 39.128 32.2872 37.2111 30.5257L31.6444 25.4101Z" fill="#F883FC"/>
<path d="M35.5563 13.2652C36.8436 12.0821 36.8436 10.0529 35.5563 8.86977L29.1199 2.95503C27.2027 1.1934 24.1035 2.55123 24.1035 5.15271V16.9822C24.1035 19.5837 27.2027 20.9415 29.1199 19.1799L35.5563 13.2652Z" fill="#39CEF2"/>
<path d="M35.5746 38.0778C36.8621 36.8947 36.8621 34.8656 35.5746 33.6823L29.1381 27.7675C27.2213 26.0059 24.1221 27.3637 24.1221 29.9654V41.795C24.1221 44.3963 27.2213 45.7541 29.1381 43.9925L35.5746 38.0778Z" fill="#4251E1"/>
</svg>
